<svg width="240" height="300" viewBox="0 0 240 300" fill="none" xmlns="http://www.w3.org/2000/svg">
<path d="M106.807 65.311L107.348 65.8279C108.44 69.1523 107.816 101.086 107.81 107.145L107.886 209.168C102.308 210.716 99.8189 211.475 94.5975 213.887C90.2429 209.483 87.221 205.061 83.9241 199.888C52.4464 146.934 69.6555 106.767 106.807 65.311Z" fill="#D9A72E"/>
<path d="M144.264 100.568C147.605 102.963 151.835 113.429 153.468 117.701C162.506 141.347 159.873 165.813 149.716 188.543C143.571 191.852 137.335 194.988 131.015 197.948L119.064 203.438C119.153 155.962 112.999 139.699 144.264 100.568Z" fill="#2F7D32"/>
<path d="M111.768 32.0503C112.231 32.0538 114.388 32.1118 114.561 32.2575C124.31 40.4131 145.525 68.5579 152.143 78.0787C174.551 110.322 180.087 135.841 173.09 173.687L163.555 180.441C181.682 118.77 149.931 85.0847 113.552 40.9943C104.302 51.3827 95.3942 62.0701 86.8419 73.0397C49.9858 119.595 47.1492 169.45 83.9311 216.979C81.4084 217.798 78.7174 218.791 76.1969 219.672C60.5609 197.759 52.3176 179.163 50.7247 151.715C47.9481 103.859 81.1171 65.5926 111.768 32.0503Z" fill="#06123D"/>
<path d="M143.933 204C135.923 213.355 128.079 222.676 118.97 231.001L118.955 214.418C123.774 212.742 133.511 207.703 139.726 205.284C140.223 205.091 140.698 204.914 141.146 204.757C142.265 204.365 143.217 204.096 143.933 204Z" fill="#2F7D32"/>
<path d="M31.8911 158.322C34.2205 159.086 33.6506 158.536 34.9253 160.245C34.1944 166.374 7.78383 186.591 7.31787 202.185C6.84982 217.827 16.3202 225.343 31.8042 226.13C87.801 228.976 150.535 194.725 192.905 160.74L197.083 166.247C178.501 181.884 160.834 193.061 139.251 203.803C139.305 204.043 139.357 204.242 139.404 204.412C133.18 206.876 123.691 211.771 118.955 213.418L118.956 214.625L118.297 213.775C108.586 217.673 98.8068 221.401 88.9663 224.958L82.5708 226.952C77.9574 228.242 73.3072 229.393 68.6245 230.404C30.3296 238.63 -23.6072 231.585 11.2134 177.896C14.7259 172.48 25.851 159.302 31.8911 158.322Z" fill="#06123D"/>
<path d="M167.584 190.514C156.934 215.606 135.074 241.01 113.634 257.486C105.93 251.308 89.3335 236.729 83.6748 228.667V228.666L91.1973 226.191C98.8869 234.775 104.838 240.129 113.605 247.698C131.177 231.482 144.633 218.842 156.102 197.294L167.584 190.514Z" fill="#06123D"/>
<path d="M184.969 86.9483C209.701 85.1786 242.03 91.7767 231.452 125.44C230.217 129.37 225.871 139.271 222.032 141.075L220.362 140.377L217.919 137.495C218.075 134.837 222.895 128.848 224.118 125.999C233.842 103.328 215.801 93.8539 195.878 93.6496C192.728 93.617 180.98 94.5786 178.605 93.2678C177.241 88.3864 181.424 87.5825 184.969 86.9483Z" fill="#06123D"/>
<path d="M204.724 141.62C208.848 140.473 213.27 141.637 216.296 144.665C219.321 147.692 220.481 152.116 219.33 156.239C218.18 160.362 214.897 163.545 210.741 164.569C204.446 166.12 198.071 162.33 196.427 156.059C194.783 149.787 198.477 143.358 204.724 141.62Z" fill="#2F7D32"/>
<path d="M112.994 271.562C118.142 270.896 122.887 274.442 123.707 279.568C124.527 284.694 121.123 289.543 116.024 290.515C112.588 291.17 109.067 289.904 106.835 287.211C104.602 284.517 104.012 280.823 105.293 277.568C106.574 274.312 109.524 272.012 112.994 271.562Z" fill="#06123D"/>
<path d="M111.851 0.175232C116.738 -0.799057 121.485 2.38825 122.432 7.2802C123.38 12.1721 120.167 16.9015 115.27 17.8227C110.411 18.7362 105.725 15.5532 104.785 10.6987C103.844 5.84423 107.002 1.14245 111.851 0.175232Z" fill="#06123D"/>
</svg>
