<svg width="957" height="304" viewBox="0 0 957 304" fill="none" xmlns="http://www.w3.org/2000/svg">
<path d="M525.749 43.1821C539.635 41.8204 555.395 45.7601 567.16 53.2065C581.01 61.9751 590.789 75.8981 594.352 91.896C602.045 126.529 583.152 162.11 547.2 169.306C526.915 173.367 506.8 170.428 490.277 157.462C486.289 154.335 483.567 149.137 479.403 146.427L478.561 146.925L478.456 150.48C478.449 156.457 479.19 197.227 477.642 200.653C476.553 203.069 474.467 204.886 471.924 205.623C457.421 209.861 460.608 188.093 460.599 180.054L460.61 141.017L460.601 88.6167C460.543 77.7491 460.497 67.3141 460.586 56.0024C460.664 46.3289 467.572 41.9823 475.825 47.8257C479.883 50.6976 478.512 64.7361 478.498 70.4985C490.199 53.1113 505.075 45.0119 525.749 43.1821ZM576.478 100.762C572.936 74.0393 548.451 55.2127 521.711 58.6509C494.823 62.109 475.875 86.7605 479.438 113.633C483.001 140.505 507.726 159.364 534.586 155.693C561.291 152.042 580.02 127.484 576.478 100.762Z" fill="#F7F5EF"/>
<path d="M888.371 43.1785C905.658 41.5318 924.295 46.8537 936.965 58.9382C948.603 70.0358 954.881 86.1325 955.659 102.046C955.921 107.362 953.806 112.954 947.775 113.261C936.958 113.879 926.006 113.612 915.16 113.597L847.964 113.589C848.989 119.425 849.838 123.795 852.306 129.233C857.05 139.877 865.874 148.166 876.79 152.233C891.185 157.637 906.167 156.049 919.996 149.877C925.327 147.251 928.961 142.847 934.525 140.993C944.523 137.662 947.507 147.488 941.745 154.049C932.2 164.24 918.836 168.355 905.36 170.354C843.453 179.535 806.794 113.879 844.04 65.0525C854.511 51.3347 870.914 44.8704 888.371 43.1785ZM937.623 99.6365C932.363 71.0052 916.603 56.1856 886.342 59.322C863.653 63.934 852.135 76.8522 848.084 99.5486L901.331 99.613L937.623 99.6365Z" fill="#F7F5EF"/>
<path d="M316.424 45.0532C317.848 45.107 320.957 45.4279 321.953 46.3761C337.075 60.7656 351.311 78.056 365.176 93.6531C371.417 86.4478 404.52 46.3965 410.669 45.4689C413.177 45.0914 415.897 45.9483 417.792 47.6169C419.363 48.9999 420.18 50.783 420.195 52.8758C420.209 54.765 419.719 56.4435 418.708 58.0293C414.749 64.2434 408.497 69.9393 403.513 75.3778L375.972 105.601C381.304 111.441 421.409 153.188 422.361 158.186C422.801 160.497 422.709 162.822 421.201 164.734C418.87 167.692 415.482 168.215 412.004 168.61C411.834 168.516 411.666 168.419 411.494 168.329C403.651 164.237 372.749 126.696 364.873 117.732L338.56 147.508C332.958 153.892 327.181 161.001 320.944 166.526C316.129 170.816 307.012 166.718 307.398 160.497C307.782 154.319 319.212 143.715 323.29 139.194L353.661 105.596C339.22 89.4491 323.703 73.6385 310.274 56.7906C306.518 52.0783 312.357 46.9007 316.424 45.0532Z" fill="#F7F5EF"/>
<path d="M752.953 43.1689C767.164 41.9726 796.824 47.182 805.606 61.4181C810.583 69.4889 799.794 77.9216 791.019 70.3465C777.536 58.7158 755.788 56.1012 739.279 62.8187C727.959 67.3303 718.916 76.1837 714.158 87.4057C709.075 99.7816 709.018 113.655 714.003 126.071C718.733 137.669 727.924 146.88 739.512 151.639C752.762 157.111 767.581 156.441 780.69 150.902C786.127 148.384 790.708 143.787 795.912 141.918C806.447 137.982 810.272 149.195 803.548 155.453C780.555 176.849 738.247 175.219 714.872 156.941C701.806 146.658 693.435 131.553 691.625 115.027C689.539 97.9002 694.411 80.6529 705.151 67.1486C717.813 51.4779 733.453 45.167 752.953 43.1689Z" fill="#F7F5EF"/>
<path d="M106.807 65.311L107.348 65.8279C108.44 69.1523 107.816 101.086 107.81 107.145L107.886 209.168C102.308 210.716 99.8189 211.475 94.5975 213.887C90.2429 209.483 87.221 205.061 83.9241 199.888C52.4464 146.934 69.6555 106.767 106.807 65.311Z" fill="#E1A634"/>
<path d="M144.264 100.568C147.605 102.963 151.835 113.429 153.468 117.701C162.506 141.347 159.873 165.813 149.716 188.543C143.571 191.852 137.335 194.988 131.015 197.948L119.064 203.438C119.153 155.962 112.999 139.699 144.264 100.568Z" fill="#3A8C38"/>
<path d="M111.768 32.0503C112.231 32.0538 114.388 32.1118 114.561 32.2575C124.31 40.4131 145.525 68.5579 152.143 78.0787C174.551 110.322 180.087 135.841 173.09 173.687L163.555 180.441C181.682 118.77 149.931 85.0847 113.552 40.9943C104.302 51.3827 95.3942 62.0701 86.8419 73.0397C49.9858 119.595 47.1492 169.45 83.9311 216.979C81.4084 217.798 78.7174 218.791 76.1969 219.672C60.5609 197.759 52.3176 179.163 50.7247 151.715C47.9481 103.859 81.1171 65.5926 111.768 32.0503Z" fill="#F7F5EF"/>
<path d="M643.724 45.0823C651.65 45.7137 654.209 47.6997 654.273 55.919C654.499 88.2755 654.379 120.655 654.393 153.014C654.4 161.986 655.34 164.187 647.104 168.628C642.048 168.131 636.491 166.737 636.463 160.28C636.328 123.853 635.473 87.0029 636.894 50.6565C636.986 48.3085 641.716 45.976 643.724 45.0823Z" fill="#F7F5EF"/>
<path d="M143.933 204C135.923 213.355 128.079 222.676 118.97 231.001L118.955 214.418C123.774 212.742 133.511 207.703 139.726 205.284C140.223 205.091 140.698 204.914 141.146 204.757C142.265 204.365 143.217 204.096 143.933 204Z" fill="#3A8C38"/>
<path d="M31.8911 158.322C34.2205 159.086 33.6506 158.536 34.9253 160.245C34.1944 166.374 7.78383 186.591 7.31787 202.185C6.84982 217.827 16.3202 225.343 31.8042 226.13C87.801 228.976 150.535 194.725 192.905 160.74L197.083 166.247C178.501 181.884 160.834 193.061 139.251 203.803C139.305 204.043 139.357 204.242 139.404 204.412C133.18 206.876 123.691 211.771 118.955 213.418L118.956 214.625L118.297 213.775C108.586 217.673 98.8068 221.401 88.9663 224.958L82.5708 226.952C77.9574 228.242 73.3072 229.393 68.6245 230.404C30.3296 238.63 -23.6072 231.585 11.2134 177.896C14.7259 172.48 25.851 159.302 31.8911 158.322Z" fill="#F7F5EF"/>
<path d="M167.584 190.514C156.934 215.606 135.074 241.01 113.634 257.486C105.93 251.308 89.3335 236.729 83.6748 228.667V228.666L91.1973 226.191C98.8869 234.775 104.838 240.129 113.605 247.698C131.177 231.482 144.633 218.842 156.102 197.294L167.584 190.514Z" fill="#F7F5EF"/>
<path d="M184.969 86.9483C209.701 85.1786 242.03 91.7767 231.452 125.44C230.217 129.37 225.871 139.271 222.032 141.075L220.362 140.377L217.919 137.495C218.075 134.837 222.895 128.848 224.118 125.999C233.842 103.328 215.801 93.8539 195.878 93.6496C192.728 93.617 180.98 94.5786 178.605 93.2678C177.241 88.3864 181.424 87.5825 184.969 86.9483Z" fill="#F7F5EF"/>
<path d="M204.724 141.62C208.848 140.473 213.27 141.637 216.296 144.665C219.321 147.692 220.481 152.116 219.33 156.239C218.18 160.362 214.897 163.545 210.741 164.569C204.446 166.12 198.071 162.33 196.427 156.059C194.783 149.787 198.477 143.358 204.724 141.62Z" fill="#3A8C38"/>
<path d="M641.737 4.09343C657.334 2.87663 663.323 17.3948 649.225 24.8717C647.082 25.1212 645.067 25.3482 642.918 25.0017C639.779 24.4997 636.986 22.699 635.239 20.0405C633.733 17.7243 633.295 14.87 634.045 12.2101C635.324 7.61019 637.94 6.15867 641.737 4.09343Z" fill="#F7F5EF"/>
<path d="M871.267 236.516C897.3 236.575 928.261 235.505 953.736 236.528C955.383 237.701 954.909 238.171 955.39 240.979L898.417 241.032C892.641 241.037 876.217 241.432 871.366 240.64C870.384 238.716 870.737 239.208 871.267 236.516Z" fill="#E1A634"/>
<path d="M301.516 236.442C327.494 236.891 358.982 235.268 384.164 236.525C385.507 238.163 385.065 238.421 385.268 241.046L332.006 241.05C323.322 241.066 310.95 241.43 302.577 240.765C301.144 239.124 301.633 239.257 301.516 236.442Z" fill="#3A8C38"/>
<path d="M112.994 271.562C118.142 270.896 122.887 274.442 123.707 279.568C124.527 284.694 121.123 289.543 116.024 290.515C112.588 291.17 109.067 289.904 106.835 287.211C104.602 284.517 104.012 280.823 105.293 277.568C106.574 274.312 109.524 272.012 112.994 271.562Z" fill="#F7F5EF"/>
<path d="M111.851 0.175232C116.738 -0.799057 121.485 2.38825 122.432 7.2802C123.38 12.1721 120.167 16.9015 115.27 17.8227C110.411 18.7362 105.725 15.5532 104.785 10.6987C103.844 5.84423 107.002 1.14245 111.851 0.175232Z" fill="#F7F5EF"/>
<path d="M660.657 287.63C661.972 286.89 663.591 286.918 664.885 287.704C666.172 288.489 666.943 289.911 666.893 291.422C666.844 292.934 665.981 294.3 664.638 294.998C662.608 296.054 660.106 295.286 659.024 293.274C657.935 291.262 658.663 288.75 660.657 287.63Z" fill="#E1A634"/>
<path d="M828.004 287.629C829.284 286.859 830.882 286.839 832.183 287.577C833.477 288.314 834.283 289.695 834.276 291.189C834.276 292.684 833.47 294.061 832.162 294.793C830.189 295.9 827.693 295.218 826.555 293.26C825.417 291.303 826.06 288.795 828.004 287.629Z" fill="#F7F5EF"/>
<path d="M438.832 287.556C440.77 286.507 443.191 287.18 444.312 289.077C445.433 290.975 444.853 293.419 442.999 294.611C441.736 295.424 440.129 295.481 438.812 294.76C437.494 294.038 436.677 292.654 436.68 291.152C436.684 289.649 437.51 288.27 438.832 287.556Z" fill="#3A8C38"/>
<path d="M429.62 250.532C426.789 250.532 424.343 249.913 422.282 248.677C420.248 247.413 418.668 245.667 417.541 243.441C416.442 241.188 415.892 238.577 415.892 235.609C415.892 232.668 416.442 230.071 417.541 227.818C418.668 225.564 420.248 223.819 422.282 222.582C424.343 221.318 426.789 220.686 429.62 220.686C433 220.686 435.734 221.497 437.823 223.118C439.939 224.74 441.286 227.021 441.863 229.961H437.328C436.916 228.257 436.064 226.897 434.772 225.88C433.508 224.863 431.791 224.355 429.62 224.355C427.668 224.355 425.978 224.808 424.549 225.715C423.12 226.622 422.021 227.914 421.251 229.59C420.482 231.267 420.097 233.273 420.097 235.609C420.097 237.945 420.482 239.965 421.251 241.669C422.021 243.345 423.12 244.637 424.549 245.544C425.978 246.423 427.668 246.863 429.62 246.863C431.791 246.863 433.508 246.382 434.772 245.42C436.064 244.431 436.916 243.098 437.328 241.421H441.863C441.286 244.28 439.939 246.519 437.823 248.141C435.734 249.735 433 250.532 429.62 250.532ZM473.384 250.532C470.608 250.532 468.162 249.913 466.046 248.677C463.957 247.413 462.308 245.667 461.099 243.441C459.917 241.188 459.327 238.577 459.327 235.609C459.327 232.668 459.917 230.085 461.099 227.859C462.308 225.605 463.957 223.846 466.046 222.582C468.162 221.318 470.608 220.686 473.384 220.686C476.214 220.686 478.688 221.318 480.804 222.582C482.92 223.846 484.555 225.605 485.71 227.859C486.891 230.085 487.482 232.668 487.482 235.609C487.482 238.577 486.891 241.188 485.71 243.441C484.555 245.667 482.92 247.413 480.804 248.677C478.688 249.913 476.214 250.532 473.384 250.532ZM473.425 246.863C475.404 246.863 477.135 246.409 478.619 245.503C480.103 244.596 481.244 243.304 482.041 241.628C482.865 239.951 483.277 237.945 483.277 235.609C483.277 233.273 482.865 231.267 482.041 229.59C481.244 227.914 480.103 226.636 478.619 225.756C477.135 224.85 475.404 224.396 473.425 224.396C471.446 224.396 469.715 224.85 468.231 225.756C466.747 226.636 465.593 227.914 464.768 229.59C463.944 231.267 463.531 233.273 463.531 235.609C463.531 237.945 463.944 239.951 464.768 241.628C465.593 243.304 466.747 244.596 468.231 245.503C469.715 246.409 471.446 246.863 473.425 246.863ZM506.047 250.037V221.181H510.169L524.886 243.318V221.181H529.008V250.037H524.886L510.169 227.941V250.037H506.047ZM548.636 250.037V221.181H552.758L567.475 243.318V221.181H571.598V250.037H567.475L552.758 227.941V250.037H548.636ZM591.225 250.037V221.181H609.446V224.561H595.347V233.795H608.209V237.093H595.347V246.657H609.446V250.037H591.225ZM641.035 250.532C638.204 250.532 635.758 249.913 633.697 248.677C631.664 247.413 630.083 245.667 628.957 243.441C627.857 241.188 627.308 238.577 627.308 235.609C627.308 232.668 627.857 230.071 628.957 227.818C630.083 225.564 631.664 223.819 633.697 222.582C635.758 221.318 638.204 220.686 641.035 220.686C644.415 220.686 647.15 221.497 649.239 223.118C651.355 224.74 652.701 227.021 653.278 229.961H648.744C648.332 228.257 647.48 226.897 646.188 225.88C644.924 224.863 643.206 224.355 641.035 224.355C639.084 224.355 637.394 224.808 635.965 225.715C634.535 226.622 633.436 227.914 632.667 229.59C631.897 231.267 631.512 233.273 631.512 235.609C631.512 237.945 631.897 239.965 632.667 241.669C633.436 243.345 634.535 244.637 635.965 245.544C637.394 246.423 639.084 246.863 641.035 246.863C643.206 246.863 644.924 246.382 646.188 245.42C647.48 244.431 648.332 243.098 648.744 241.421H653.278C652.701 244.28 651.355 246.519 649.239 248.141C647.15 249.735 644.415 250.532 641.035 250.532ZM677.97 250.037V224.561H669.436V221.181H690.667V224.561H682.092V250.037H677.97ZM708.445 250.037V221.181H712.567V250.037H708.445ZM745.179 250.532C742.403 250.532 739.957 249.913 737.841 248.677C735.752 247.413 734.103 245.667 732.894 243.441C731.713 241.188 731.122 238.577 731.122 235.609C731.122 232.668 731.713 230.085 732.894 227.859C734.103 225.605 735.752 223.846 737.841 222.582C739.957 221.318 742.403 220.686 745.179 220.686C748.01 220.686 750.483 221.318 752.599 222.582C754.715 223.846 756.35 225.605 757.505 227.859C758.686 230.085 759.277 232.668 759.277 235.609C759.277 238.577 758.686 241.188 757.505 243.441C756.35 245.667 754.715 247.413 752.599 248.677C750.483 249.913 748.01 250.532 745.179 250.532ZM745.22 246.863C747.199 246.863 748.93 246.409 750.414 245.503C751.898 244.596 753.039 243.304 753.836 241.628C754.66 239.951 755.073 237.945 755.073 235.609C755.073 233.273 754.66 231.267 753.836 229.59C753.039 227.914 751.898 226.636 750.414 225.756C748.93 224.85 747.199 224.396 745.22 224.396C743.241 224.396 741.51 224.85 740.026 225.756C738.542 226.636 737.388 227.914 736.563 229.59C735.739 231.267 735.326 233.273 735.326 235.609C735.326 237.945 735.739 239.951 736.563 241.628C737.388 243.304 738.542 244.596 740.026 245.503C741.51 246.409 743.241 246.863 745.22 246.863ZM777.842 250.037V221.181H781.964L796.681 243.318V221.181H800.804V250.037H796.681L781.964 227.941V250.037H777.842ZM829.871 250.532C827.755 250.532 825.9 250.161 824.306 249.419C822.712 248.649 821.475 247.577 820.596 246.203C819.717 244.829 819.277 243.221 819.277 241.38H823.605C823.633 242.424 823.88 243.386 824.347 244.266C824.842 245.118 825.543 245.805 826.45 246.327C827.384 246.822 828.525 247.069 829.871 247.069C831.026 247.069 832.015 246.877 832.839 246.492C833.691 246.107 834.337 245.585 834.777 244.925C835.217 244.238 835.437 243.455 835.437 242.576C835.437 241.559 835.203 240.721 834.736 240.061C834.269 239.401 833.636 238.866 832.839 238.453C832.07 238.014 831.163 237.629 830.119 237.299C829.102 236.969 828.03 236.612 826.903 236.227C824.622 235.485 822.918 234.523 821.792 233.342C820.692 232.16 820.143 230.621 820.143 228.725C820.143 227.103 820.527 225.701 821.297 224.52C822.066 223.311 823.138 222.376 824.512 221.717C825.914 221.029 827.563 220.686 829.459 220.686C831.328 220.686 832.963 221.029 834.365 221.717C835.766 222.404 836.866 223.352 837.663 224.561C838.46 225.77 838.858 227.186 838.858 228.807H834.488C834.488 228.065 834.296 227.337 833.911 226.622C833.527 225.908 832.949 225.33 832.18 224.891C831.41 224.424 830.462 224.19 829.335 224.19C828.401 224.162 827.563 224.314 826.821 224.643C826.079 224.973 825.502 225.454 825.089 226.086C824.677 226.718 824.471 227.474 824.471 228.354C824.471 229.233 824.65 229.948 825.007 230.497C825.392 231.019 825.941 231.473 826.656 231.858C827.37 232.242 828.195 232.6 829.129 232.929C830.091 233.232 831.149 233.575 832.304 233.96C833.733 234.427 834.997 235.004 836.096 235.691C837.223 236.351 838.102 237.217 838.734 238.288C839.394 239.333 839.724 240.679 839.724 242.328C839.724 243.757 839.353 245.09 838.611 246.327C837.869 247.564 836.769 248.581 835.313 249.378C833.856 250.147 832.042 250.532 829.871 250.532Z" fill="#F7F5EF"/>
<path d="M300.32 297.037V283.94H308.459V285.474H302.191V289.721H307.43V291.218H302.191V297.037H300.32ZM316.636 297.037V283.94H318.507V295.559H324.494V297.037H316.636ZM332.018 297.037L336.826 283.94H338.866L343.674 297.037H341.672L337.837 286.185L333.982 297.037H332.018ZM334.188 293.8L334.712 292.303H340.868L341.392 293.8H334.188ZM353.834 297.037L348.969 283.94H350.99L354.956 295.091L358.96 283.94H360.944L356.079 297.037H353.834ZM374.253 297.262C372.993 297.262 371.883 296.981 370.922 296.42C369.974 295.846 369.226 295.054 368.677 294.043C368.141 293.021 367.872 291.836 367.872 290.488C367.872 289.154 368.141 287.981 368.677 286.971C369.226 285.948 369.974 285.15 370.922 284.576C371.883 284.002 372.993 283.715 374.253 283.715C375.537 283.715 376.66 284.002 377.62 284.576C378.581 285.15 379.323 285.948 379.847 286.971C380.383 287.981 380.651 289.154 380.651 290.488C380.651 291.836 380.383 293.021 379.847 294.043C379.323 295.054 378.581 295.846 377.62 296.42C376.66 296.981 375.537 297.262 374.253 297.262ZM374.271 295.596C375.169 295.596 375.955 295.391 376.629 294.979C377.302 294.567 377.82 293.981 378.182 293.22C378.556 292.459 378.743 291.549 378.743 290.488C378.743 289.428 378.556 288.518 378.182 287.757C377.82 286.996 377.302 286.416 376.629 286.017C375.955 285.605 375.169 285.399 374.271 285.399C373.373 285.399 372.587 285.605 371.914 286.017C371.24 286.416 370.716 286.996 370.342 287.757C369.968 288.518 369.781 289.428 369.781 290.488C369.781 291.549 369.968 292.459 370.342 293.22C370.716 293.981 371.24 294.567 371.914 294.979C372.587 295.391 373.373 295.596 374.271 295.596ZM389.078 297.037V283.94H393.512C394.547 283.94 395.395 284.115 396.057 284.464C396.718 284.813 397.204 285.281 397.516 285.867C397.84 286.441 398.002 287.096 398.002 287.832C398.002 288.53 397.84 289.179 397.516 289.778C397.204 290.364 396.711 290.838 396.038 291.199C395.364 291.549 394.504 291.723 393.456 291.723H390.949V297.037H389.078ZM395.963 297.037L393.138 291.218H395.196L398.133 297.037H395.963ZM390.949 290.301H393.381C394.304 290.301 394.984 290.077 395.42 289.628C395.857 289.166 396.075 288.58 396.075 287.869C396.075 287.146 395.863 286.572 395.439 286.148C395.015 285.724 394.329 285.512 393.381 285.512H390.949V290.301ZM410.883 297.262C409.923 297.262 409.081 297.093 408.358 296.756C407.634 296.407 407.073 295.921 406.674 295.297C406.274 294.673 406.075 293.944 406.075 293.108H408.039C408.052 293.582 408.164 294.019 408.376 294.418C408.601 294.804 408.919 295.116 409.33 295.353C409.755 295.578 410.272 295.69 410.883 295.69C411.407 295.69 411.856 295.603 412.231 295.428C412.617 295.253 412.91 295.016 413.11 294.717C413.31 294.405 413.409 294.05 413.409 293.651C413.409 293.189 413.303 292.809 413.091 292.509C412.879 292.21 412.592 291.967 412.231 291.78C411.881 291.58 411.47 291.405 410.996 291.256C410.534 291.106 410.048 290.944 409.536 290.769C408.501 290.432 407.728 289.996 407.216 289.459C406.717 288.923 406.468 288.225 406.468 287.364C406.468 286.628 406.642 285.992 406.992 285.455C407.341 284.907 407.827 284.482 408.451 284.183C409.087 283.871 409.836 283.715 410.696 283.715C411.545 283.715 412.287 283.871 412.923 284.183C413.559 284.495 414.058 284.925 414.42 285.474C414.781 286.023 414.962 286.665 414.962 287.401H412.979C412.979 287.065 412.892 286.734 412.717 286.41C412.542 286.085 412.28 285.823 411.931 285.624C411.582 285.412 411.152 285.306 410.64 285.306C410.216 285.293 409.836 285.362 409.499 285.512C409.162 285.661 408.9 285.88 408.713 286.166C408.526 286.453 408.432 286.796 408.432 287.195C408.432 287.595 408.513 287.919 408.676 288.168C408.85 288.405 409.1 288.611 409.424 288.786C409.748 288.96 410.123 289.123 410.547 289.272C410.983 289.41 411.463 289.565 411.987 289.74C412.636 289.952 413.21 290.214 413.709 290.526C414.22 290.825 414.619 291.218 414.906 291.705C415.206 292.179 415.355 292.79 415.355 293.538C415.355 294.187 415.187 294.792 414.85 295.353C414.513 295.914 414.014 296.376 413.353 296.738C412.692 297.087 411.869 297.262 410.883 297.262Z" fill="#F7F5EF"/>
<path d="M467.32 297.037V283.94H469.191V297.037H467.32ZM478.099 297.037V283.94H479.97L486.65 293.987V283.94H488.521V297.037H486.65L479.97 287.008V297.037H478.099ZM503.099 297.262C501.864 297.262 500.785 296.981 499.862 296.42C498.939 295.858 498.222 295.073 497.71 294.062C497.199 293.052 496.943 291.873 496.943 290.526C496.943 289.191 497.199 288.012 497.71 286.99C498.234 285.967 498.976 285.169 499.937 284.595C500.91 284.008 502.057 283.715 503.379 283.715C504.864 283.715 506.105 284.077 507.103 284.801C508.101 285.512 508.743 286.503 509.03 287.775H506.897C506.71 287.052 506.317 286.484 505.718 286.073C505.119 285.649 504.334 285.437 503.361 285.437C502.438 285.437 501.633 285.643 500.947 286.054C500.273 286.466 499.756 287.052 499.394 287.813C499.032 288.574 498.851 289.478 498.851 290.526C498.851 291.586 499.032 292.497 499.394 293.258C499.756 294.019 500.267 294.599 500.928 294.998C501.589 295.397 502.35 295.596 503.211 295.596C504.533 295.596 505.525 295.216 506.186 294.455C506.859 293.694 507.252 292.678 507.365 291.405H503.754V289.965H509.254V297.037H507.552L507.383 295.035C507.084 295.522 506.735 295.933 506.336 296.27C505.949 296.594 505.494 296.844 504.97 297.018C504.446 297.181 503.822 297.262 503.099 297.262ZM517.892 297.037V283.94H522.327C523.362 283.94 524.21 284.115 524.871 284.464C525.532 284.813 526.019 285.281 526.331 285.867C526.655 286.441 526.817 287.096 526.817 287.832C526.817 288.53 526.655 289.179 526.331 289.778C526.019 290.364 525.526 290.838 524.853 291.199C524.179 291.549 523.318 291.723 522.271 291.723H519.763V297.037H517.892ZM524.778 297.037L521.953 291.218H524.011L526.948 297.037H524.778ZM519.763 290.301H522.196C523.119 290.301 523.799 290.077 524.235 289.628C524.672 289.166 524.89 288.58 524.89 287.869C524.89 287.146 524.678 286.572 524.254 286.148C523.83 285.724 523.144 285.512 522.196 285.512H519.763V290.301ZM535.414 297.037V283.94H543.684V285.474H537.285V289.665H543.122V291.162H537.285V295.503H543.684V297.037H535.414ZM552.277 297.037V283.94H556.3C557.822 283.94 559.081 284.208 560.079 284.744C561.077 285.281 561.813 286.042 562.287 287.027C562.774 288 563.017 289.16 563.017 290.507C563.017 291.854 562.774 293.014 562.287 293.987C561.813 294.96 561.077 295.715 560.079 296.251C559.094 296.775 557.834 297.037 556.3 297.037H552.277ZM554.148 295.465H556.225C557.435 295.465 558.395 295.266 559.106 294.867C559.817 294.468 560.322 293.9 560.622 293.164C560.934 292.416 561.09 291.53 561.09 290.507C561.09 289.472 560.934 288.58 560.622 287.832C560.322 287.083 559.817 286.509 559.106 286.11C558.395 285.711 557.435 285.512 556.225 285.512H554.148V295.465ZM571.443 297.037V283.94H573.314V297.037H571.443ZM582.222 297.037V283.94H590.492V285.474H584.093V289.665H589.93V291.162H584.093V295.503H590.492V297.037H582.222ZM599.085 297.037V283.94H600.956L607.636 293.987V283.94H609.507V297.037H607.636L600.956 287.008V297.037H599.085ZM621.465 297.037V285.474H617.592V283.94H627.228V285.474H623.336V297.037H621.465ZM639.326 297.262C638.365 297.262 637.523 297.093 636.8 296.756C636.076 296.407 635.515 295.921 635.116 295.297C634.717 294.673 634.517 293.944 634.517 293.108H636.482C636.494 293.582 636.606 294.019 636.819 294.418C637.043 294.804 637.361 295.116 637.773 295.353C638.197 295.578 638.714 295.69 639.326 295.69C639.85 295.69 640.299 295.603 640.673 295.428C641.06 295.253 641.353 295.016 641.552 294.717C641.752 294.405 641.852 294.05 641.852 293.651C641.852 293.189 641.746 292.809 641.534 292.509C641.321 292.21 641.035 291.967 640.673 291.78C640.324 291.58 639.912 291.405 639.438 291.256C638.976 291.106 638.49 290.944 637.979 290.769C636.943 290.432 636.17 289.996 635.658 289.459C635.16 288.923 634.91 288.225 634.91 287.364C634.91 286.628 635.085 285.992 635.434 285.455C635.783 284.907 636.27 284.482 636.893 284.183C637.529 283.871 638.278 283.715 639.139 283.715C639.987 283.715 640.729 283.871 641.365 284.183C642.001 284.495 642.5 284.925 642.862 285.474C643.224 286.023 643.405 286.665 643.405 287.401H641.421C641.421 287.065 641.334 286.734 641.159 286.41C640.985 286.085 640.723 285.823 640.373 285.624C640.024 285.412 639.594 285.306 639.082 285.306C638.658 285.293 638.278 285.362 637.941 285.512C637.604 285.661 637.342 285.88 637.155 286.166C636.968 286.453 636.875 286.796 636.875 287.195C636.875 287.595 636.956 287.919 637.118 288.168C637.293 288.405 637.542 288.611 637.866 288.786C638.191 288.96 638.565 289.123 638.989 289.272C639.425 289.41 639.906 289.565 640.43 289.74C641.078 289.952 641.652 290.214 642.151 290.526C642.662 290.825 643.062 291.218 643.348 291.705C643.648 292.179 643.797 292.79 643.797 293.538C643.797 294.187 643.629 294.792 643.292 295.353C642.955 295.914 642.457 296.376 641.795 296.738C641.134 297.087 640.311 297.262 639.326 297.262Z" fill="#F7F5EF"/>
<path d="M689.32 297.037V283.94H691.191V297.037H689.32ZM700.099 297.037V283.94H701.97L708.65 293.987V283.94H710.521V297.037H708.65L701.97 287.008V297.037H700.099ZM723.714 297.262C722.754 297.262 721.912 297.093 721.188 296.756C720.465 296.407 719.903 295.921 719.504 295.297C719.105 294.673 718.906 293.944 718.906 293.108H720.87C720.883 293.582 720.995 294.019 721.207 294.418C721.431 294.804 721.75 295.116 722.161 295.353C722.585 295.578 723.103 295.69 723.714 295.69C724.238 295.69 724.687 295.603 725.061 295.428C725.448 295.253 725.741 295.016 725.941 294.717C726.14 294.405 726.24 294.05 726.24 293.651C726.24 293.189 726.134 292.809 725.922 292.509C725.71 292.21 725.423 291.967 725.061 291.78C724.712 291.58 724.3 291.405 723.826 291.256C723.365 291.106 722.878 290.944 722.367 290.769C721.332 290.432 720.558 289.996 720.047 289.459C719.548 288.923 719.298 288.225 719.298 287.364C719.298 286.628 719.473 285.992 719.822 285.455C720.172 284.907 720.658 284.482 721.282 284.183C721.918 283.871 722.666 283.715 723.527 283.715C724.375 283.715 725.117 283.871 725.754 284.183C726.39 284.495 726.889 284.925 727.25 285.474C727.612 286.023 727.793 286.665 727.793 287.401H725.81C725.81 287.065 725.722 286.734 725.548 286.41C725.373 286.085 725.111 285.823 724.762 285.624C724.413 285.412 723.982 285.306 723.471 285.306C723.047 285.293 722.666 285.362 722.33 285.512C721.993 285.661 721.731 285.88 721.544 286.166C721.357 286.453 721.263 286.796 721.263 287.195C721.263 287.595 721.344 287.919 721.506 288.168C721.681 288.405 721.93 288.611 722.255 288.786C722.579 288.96 722.953 289.123 723.377 289.272C723.814 289.41 724.294 289.565 724.818 289.74C725.467 289.952 726.04 290.214 726.539 290.526C727.051 290.825 727.45 291.218 727.737 291.705C728.036 292.179 728.186 292.79 728.186 293.538C728.186 294.187 728.018 294.792 727.681 295.353C727.344 295.914 726.845 296.376 726.184 296.738C725.523 297.087 724.7 297.262 723.714 297.262ZM736.585 297.037V283.94H738.456V297.037H736.585ZM753.033 297.262C751.798 297.262 750.72 296.981 749.796 296.42C748.873 295.858 748.156 295.073 747.645 294.062C747.133 293.052 746.878 291.873 746.878 290.526C746.878 289.191 747.133 288.012 747.645 286.99C748.169 285.967 748.911 285.169 749.871 284.595C750.844 284.008 751.992 283.715 753.314 283.715C754.798 283.715 756.039 284.077 757.037 284.801C758.035 285.512 758.678 286.503 758.965 287.775H756.832C756.644 287.052 756.252 286.484 755.653 286.073C755.054 285.649 754.268 285.437 753.295 285.437C752.372 285.437 751.568 285.643 750.882 286.054C750.208 286.466 749.69 287.052 749.329 287.813C748.967 288.574 748.786 289.478 748.786 290.526C748.786 291.586 748.967 292.497 749.329 293.258C749.69 294.019 750.202 294.599 750.863 294.998C751.524 295.397 752.285 295.596 753.146 295.596C754.468 295.596 755.459 295.216 756.121 294.455C756.794 293.694 757.187 292.678 757.299 291.405H753.688V289.965H759.189V297.037H757.486L757.318 295.035C757.019 295.522 756.669 295.933 756.27 296.27C755.884 296.594 755.428 296.844 754.904 297.018C754.381 297.181 753.757 297.262 753.033 297.262ZM776.153 297.037V283.94H778.024V297.037H776.153ZM767.827 297.037V283.94H769.698V297.037H767.827ZM769.38 291.125V289.59H776.565V291.125H769.38ZM789.988 297.037V285.474H786.115V283.94H795.751V285.474H791.859V297.037H789.988ZM807.848 297.262C806.888 297.262 806.046 297.093 805.323 296.756C804.599 296.407 804.038 295.921 803.639 295.297C803.24 294.673 803.04 293.944 803.04 293.108H805.005C805.017 293.582 805.129 294.019 805.341 294.418C805.566 294.804 805.884 295.116 806.296 295.353C806.72 295.578 807.237 295.69 807.848 295.69C808.372 295.69 808.821 295.603 809.196 295.428C809.582 295.253 809.875 295.016 810.075 294.717C810.275 294.405 810.374 294.05 810.374 293.651C810.374 293.189 810.268 292.809 810.056 292.509C809.844 292.21 809.557 291.967 809.196 291.78C808.846 291.58 808.435 291.405 807.961 291.256C807.499 291.106 807.013 290.944 806.501 290.769C805.466 290.432 804.693 289.996 804.181 289.459C803.682 288.923 803.433 288.225 803.433 287.364C803.433 286.628 803.607 285.992 803.957 285.455C804.306 284.907 804.792 284.482 805.416 284.183C806.052 283.871 806.801 283.715 807.661 283.715C808.51 283.715 809.252 283.871 809.888 284.183C810.524 284.495 811.023 284.925 811.385 285.474C811.746 286.023 811.927 286.665 811.927 287.401H809.944C809.944 287.065 809.857 286.734 809.682 286.41C809.507 286.085 809.246 285.823 808.896 285.624C808.547 285.412 808.117 285.306 807.605 285.306C807.181 285.293 806.801 285.362 806.464 285.512C806.127 285.661 805.865 285.88 805.678 286.166C805.491 286.453 805.397 286.796 805.397 287.195C805.397 287.595 805.479 287.919 805.641 288.168C805.815 288.405 806.065 288.611 806.389 288.786C806.713 288.96 807.088 289.123 807.512 289.272C807.948 289.41 808.429 289.565 808.952 289.74C809.601 289.952 810.175 290.214 810.674 290.526C811.185 290.825 811.584 291.218 811.871 291.705C812.171 292.179 812.32 292.79 812.32 293.538C812.32 294.187 812.152 294.792 811.815 295.353C811.478 295.914 810.979 296.376 810.318 296.738C809.657 297.087 808.834 297.262 807.848 297.262Z" fill="#F7F5EF"/>
<path d="M860.99 297.262C859.755 297.262 858.676 296.981 857.753 296.42C856.83 295.858 856.113 295.073 855.601 294.062C855.09 293.052 854.834 291.873 854.834 290.526C854.834 289.191 855.09 288.012 855.601 286.99C856.125 285.967 856.867 285.169 857.828 284.595C858.801 284.008 859.948 283.715 861.27 283.715C862.755 283.715 863.996 284.077 864.994 284.801C865.992 285.512 866.634 286.503 866.921 287.775H864.788C864.601 287.052 864.208 286.484 863.609 286.073C863.01 285.649 862.225 285.437 861.252 285.437C860.329 285.437 859.524 285.643 858.838 286.054C858.164 286.466 857.647 287.052 857.285 287.813C856.923 288.574 856.742 289.478 856.742 290.526C856.742 291.586 856.923 292.497 857.285 293.258C857.647 294.019 858.158 294.599 858.819 294.998C859.48 295.397 860.241 295.596 861.102 295.596C862.424 295.596 863.416 295.216 864.077 294.455C864.75 293.694 865.143 292.678 865.256 291.405H861.645V289.965H867.145V297.037H865.443L865.274 295.035C864.975 295.522 864.626 295.933 864.227 296.27C863.84 296.594 863.385 296.844 862.861 297.018C862.337 297.181 861.713 297.262 860.99 297.262ZM875.783 297.037V283.94H877.654V295.559H883.642V297.037H875.783ZM896.695 297.262C895.435 297.262 894.325 296.981 893.365 296.42C892.417 295.846 891.668 295.054 891.119 294.043C890.583 293.021 890.315 291.836 890.315 290.488C890.315 289.154 890.583 287.981 891.119 286.971C891.668 285.948 892.417 285.15 893.365 284.576C894.325 284.002 895.435 283.715 896.695 283.715C897.98 283.715 899.103 284.002 900.063 284.576C901.023 285.15 901.766 285.948 902.29 286.971C902.826 287.981 903.094 289.154 903.094 290.488C903.094 291.836 902.826 293.021 902.29 294.043C901.766 295.054 901.023 295.846 900.063 296.42C899.103 296.981 897.98 297.262 896.695 297.262ZM896.714 295.596C897.612 295.596 898.398 295.391 899.071 294.979C899.745 294.567 900.263 293.981 900.624 293.22C900.999 292.459 901.186 291.549 901.186 290.488C901.186 289.428 900.999 288.518 900.624 287.757C900.263 286.996 899.745 286.416 899.071 286.017C898.398 285.605 897.612 285.399 896.714 285.399C895.816 285.399 895.03 285.605 894.356 286.017C893.683 286.416 893.159 286.996 892.785 287.757C892.41 288.518 892.223 289.428 892.223 290.488C892.223 291.549 892.41 292.459 892.785 293.22C893.159 293.981 893.683 294.567 894.356 294.979C895.03 295.391 895.816 295.596 896.714 295.596ZM911.52 297.037V283.94H916.366C917.277 283.94 918.038 284.09 918.649 284.389C919.26 284.676 919.715 285.075 920.015 285.586C920.326 286.085 920.482 286.653 920.482 287.289C920.482 287.95 920.339 288.505 920.052 288.954C919.765 289.403 919.385 289.753 918.911 290.002C918.449 290.239 917.95 290.376 917.414 290.414L917.676 290.227C918.25 290.239 918.774 290.395 919.248 290.694C919.722 290.981 920.096 291.368 920.37 291.854C920.645 292.341 920.782 292.877 920.782 293.463C920.782 294.137 920.62 294.748 920.295 295.297C919.971 295.833 919.491 296.258 918.855 296.569C918.218 296.881 917.439 297.037 916.516 297.037H911.52ZM913.391 295.484H916.273C917.096 295.484 917.732 295.297 918.181 294.923C918.643 294.536 918.873 293.994 918.873 293.295C918.873 292.609 918.636 292.06 918.162 291.649C917.701 291.237 917.058 291.031 916.235 291.031H913.391V295.484ZM913.391 289.59H916.16C916.946 289.59 917.545 289.41 917.956 289.048C918.368 288.674 918.574 288.162 918.574 287.514C918.574 286.89 918.368 286.397 917.956 286.035C917.545 285.661 916.927 285.474 916.104 285.474H913.391V289.59ZM928.163 297.037L932.971 283.94H935.011L939.819 297.037H937.817L933.982 286.185L930.127 297.037H928.163ZM930.333 293.8L930.857 292.303H937.013L937.537 293.8H930.333ZM947.86 297.037V283.94H949.731V295.559H955.718V297.037H947.86Z" fill="#F7F5EF"/>
</svg>
